<mxfile host="app.diagrams.net" modified="2023-10-22T14:37:17.298Z" agent="Mozilla/5.0 (Windows NT 10.0; Win64; x64) AppleWebKit/537.36 (KHTML, like Gecko) Chrome/118.0.0.0 Safari/537.36" etag="-N9EELntqxfzJJg17ynd" version="22.0.6" type="github">
  <diagram id="C5RBs43oDa-KdzZeNtuy" name="Page-1">
    <mxGraphModel dx="2180" dy="2823" grid="1" gridSize="10" guides="1" tooltips="1" connect="1" arrows="1" fold="1" page="1" pageScale="1" pageWidth="827" pageHeight="1169" math="0" shadow="0">
      <root>
        <mxCell id="WIyWlLk6GJQsqaUBKTNV-0" />
        <mxCell id="WIyWlLk6GJQsqaUBKTNV-1" parent="WIyWlLk6GJQsqaUBKTNV-0" />
        <mxCell id="PGz181kGc2inq-XdH9TZ-1" value="Vuelo" style="swimlane;fontStyle=2;align=center;verticalAlign=top;childLayout=stackLayout;horizontal=1;startSize=26;horizontalStack=0;resizeParent=1;resizeLast=0;collapsible=1;marginBottom=0;rounded=0;shadow=0;strokeWidth=1;" parent="WIyWlLk6GJQsqaUBKTNV-1" vertex="1">
          <mxGeometry x="760" y="-810" width="150" height="110" as="geometry">
            <mxRectangle x="230" y="140" width="160" height="26" as="alternateBounds" />
          </mxGeometry>
        </mxCell>
        <mxCell id="PGz181kGc2inq-XdH9TZ-2" value="" style="shape=table;startSize=0;container=1;collapsible=1;childLayout=tableLayout;fixedRows=1;rowLines=0;fontStyle=0;align=center;resizeLast=1;strokeColor=none;fillColor=none;collapsible=0;" parent="PGz181kGc2inq-XdH9TZ-1" vertex="1">
          <mxGeometry y="26" width="150" height="30" as="geometry" />
        </mxCell>
        <mxCell id="PGz181kGc2inq-XdH9TZ-3" value="" style="shape=tableRow;horizontal=0;startSize=0;swimlaneHead=0;swimlaneBody=0;fillColor=none;collapsible=0;dropTarget=0;points=[[0,0.5],[1,0.5]];portConstraint=eastwest;top=0;left=0;right=0;bottom=1;" parent="PGz181kGc2inq-XdH9TZ-2" vertex="1">
          <mxGeometry width="150" height="30" as="geometry" />
        </mxCell>
        <mxCell id="PGz181kGc2inq-XdH9TZ-4" value="PK" style="shape=partialRectangle;connectable=0;fillColor=none;top=0;left=0;bottom=0;right=0;fontStyle=1;overflow=hidden;whiteSpace=wrap;html=1;" parent="PGz181kGc2inq-XdH9TZ-3" vertex="1">
          <mxGeometry width="30" height="30" as="geometry">
            <mxRectangle width="30" height="30" as="alternateBounds" />
          </mxGeometry>
        </mxCell>
        <mxCell id="PGz181kGc2inq-XdH9TZ-5" value="id_vuelo" style="shape=partialRectangle;connectable=0;fillColor=none;top=0;left=0;bottom=0;right=0;align=left;spacingLeft=6;fontStyle=5;overflow=hidden;whiteSpace=wrap;html=1;" parent="PGz181kGc2inq-XdH9TZ-3" vertex="1">
          <mxGeometry x="30" width="120" height="30" as="geometry">
            <mxRectangle width="120" height="30" as="alternateBounds" />
          </mxGeometry>
        </mxCell>
        <mxCell id="PGz181kGc2inq-XdH9TZ-7" value="hora_salida" style="text;align=left;verticalAlign=top;spacingLeft=4;spacingRight=4;overflow=hidden;rotatable=0;points=[[0,0.5],[1,0.5]];portConstraint=eastwest;rounded=0;shadow=0;html=0;" parent="PGz181kGc2inq-XdH9TZ-1" vertex="1">
          <mxGeometry y="56" width="150" height="26" as="geometry" />
        </mxCell>
        <mxCell id="PGz181kGc2inq-XdH9TZ-8" value="hora_llegada" style="text;align=left;verticalAlign=top;spacingLeft=4;spacingRight=4;overflow=hidden;rotatable=0;points=[[0,0.5],[1,0.5]];portConstraint=eastwest;" parent="PGz181kGc2inq-XdH9TZ-1" vertex="1">
          <mxGeometry y="82" width="150" height="26" as="geometry" />
        </mxCell>
        <mxCell id="PGz181kGc2inq-XdH9TZ-11" value="Cliente" style="swimlane;fontStyle=2;align=center;verticalAlign=top;childLayout=stackLayout;horizontal=1;startSize=26;horizontalStack=0;resizeParent=1;resizeLast=0;collapsible=1;marginBottom=0;rounded=0;shadow=0;strokeWidth=1;" parent="WIyWlLk6GJQsqaUBKTNV-1" vertex="1">
          <mxGeometry x="-190" y="-1205.5" width="150" height="186" as="geometry">
            <mxRectangle x="230" y="140" width="160" height="26" as="alternateBounds" />
          </mxGeometry>
        </mxCell>
        <mxCell id="PGz181kGc2inq-XdH9TZ-12" value="" style="shape=table;startSize=0;container=1;collapsible=1;childLayout=tableLayout;fixedRows=1;rowLines=0;fontStyle=0;align=center;resizeLast=1;strokeColor=none;fillColor=none;collapsible=0;" parent="PGz181kGc2inq-XdH9TZ-11" vertex="1">
          <mxGeometry y="26" width="150" height="30" as="geometry" />
        </mxCell>
        <mxCell id="PGz181kGc2inq-XdH9TZ-13" value="" style="shape=tableRow;horizontal=0;startSize=0;swimlaneHead=0;swimlaneBody=0;fillColor=none;collapsible=0;dropTarget=0;points=[[0,0.5],[1,0.5]];portConstraint=eastwest;top=0;left=0;right=0;bottom=1;" parent="PGz181kGc2inq-XdH9TZ-12" vertex="1">
          <mxGeometry width="150" height="30" as="geometry" />
        </mxCell>
        <mxCell id="PGz181kGc2inq-XdH9TZ-14" value="PK" style="shape=partialRectangle;connectable=0;fillColor=none;top=0;left=0;bottom=0;right=0;fontStyle=1;overflow=hidden;whiteSpace=wrap;html=1;" parent="PGz181kGc2inq-XdH9TZ-13" vertex="1">
          <mxGeometry width="30" height="30" as="geometry">
            <mxRectangle width="30" height="30" as="alternateBounds" />
          </mxGeometry>
        </mxCell>
        <mxCell id="PGz181kGc2inq-XdH9TZ-15" value="DNI" style="shape=partialRectangle;connectable=0;fillColor=none;top=0;left=0;bottom=0;right=0;align=left;spacingLeft=6;fontStyle=5;overflow=hidden;whiteSpace=wrap;html=1;" parent="PGz181kGc2inq-XdH9TZ-13" vertex="1">
          <mxGeometry x="30" width="120" height="30" as="geometry">
            <mxRectangle width="120" height="30" as="alternateBounds" />
          </mxGeometry>
        </mxCell>
        <mxCell id="PGz181kGc2inq-XdH9TZ-16" value="nombre" style="text;align=left;verticalAlign=top;spacingLeft=4;spacingRight=4;overflow=hidden;rotatable=0;points=[[0,0.5],[1,0.5]];portConstraint=eastwest;rounded=0;shadow=0;html=0;" parent="PGz181kGc2inq-XdH9TZ-11" vertex="1">
          <mxGeometry y="56" width="150" height="26" as="geometry" />
        </mxCell>
        <mxCell id="PGz181kGc2inq-XdH9TZ-17" value="apellidos" style="text;align=left;verticalAlign=top;spacingLeft=4;spacingRight=4;overflow=hidden;rotatable=0;points=[[0,0.5],[1,0.5]];portConstraint=eastwest;rounded=0;shadow=0;html=0;" parent="PGz181kGc2inq-XdH9TZ-11" vertex="1">
          <mxGeometry y="82" width="150" height="26" as="geometry" />
        </mxCell>
        <mxCell id="PGz181kGc2inq-XdH9TZ-18" value="direccion" style="text;align=left;verticalAlign=top;spacingLeft=4;spacingRight=4;overflow=hidden;rotatable=0;points=[[0,0.5],[1,0.5]];portConstraint=eastwest;rounded=0;shadow=0;html=0;" parent="PGz181kGc2inq-XdH9TZ-11" vertex="1">
          <mxGeometry y="108" width="150" height="26" as="geometry" />
        </mxCell>
        <mxCell id="PGz181kGc2inq-XdH9TZ-19" value="telefono" style="text;align=left;verticalAlign=top;spacingLeft=4;spacingRight=4;overflow=hidden;rotatable=0;points=[[0,0.5],[1,0.5]];portConstraint=eastwest;rounded=0;shadow=0;html=0;" parent="PGz181kGc2inq-XdH9TZ-11" vertex="1">
          <mxGeometry y="134" width="150" height="26" as="geometry" />
        </mxCell>
        <mxCell id="PGz181kGc2inq-XdH9TZ-64" value="tarjeta_credito" style="text;align=left;verticalAlign=top;spacingLeft=4;spacingRight=4;overflow=hidden;rotatable=0;points=[[0,0.5],[1,0.5]];portConstraint=eastwest;rounded=0;shadow=0;html=0;" parent="PGz181kGc2inq-XdH9TZ-11" vertex="1">
          <mxGeometry y="160" width="150" height="26" as="geometry" />
        </mxCell>
        <mxCell id="PGz181kGc2inq-XdH9TZ-20" value="Tarjeta_embarque" style="swimlane;fontStyle=2;align=center;verticalAlign=top;childLayout=stackLayout;horizontal=1;startSize=26;horizontalStack=0;resizeParent=1;resizeLast=0;collapsible=1;marginBottom=0;rounded=0;shadow=0;strokeWidth=1;" parent="WIyWlLk6GJQsqaUBKTNV-1" vertex="1">
          <mxGeometry x="240" y="-1166.5" width="160" height="108" as="geometry">
            <mxRectangle x="230" y="140" width="160" height="26" as="alternateBounds" />
          </mxGeometry>
        </mxCell>
        <mxCell id="PGz181kGc2inq-XdH9TZ-21" value="" style="shape=table;startSize=0;container=1;collapsible=1;childLayout=tableLayout;fixedRows=1;rowLines=0;fontStyle=0;align=center;resizeLast=1;strokeColor=none;fillColor=none;collapsible=0;" parent="PGz181kGc2inq-XdH9TZ-20" vertex="1">
          <mxGeometry y="26" width="160" height="30" as="geometry" />
        </mxCell>
        <mxCell id="PGz181kGc2inq-XdH9TZ-22" value="" style="shape=tableRow;horizontal=0;startSize=0;swimlaneHead=0;swimlaneBody=0;fillColor=none;collapsible=0;dropTarget=0;points=[[0,0.5],[1,0.5]];portConstraint=eastwest;top=0;left=0;right=0;bottom=1;" parent="PGz181kGc2inq-XdH9TZ-21" vertex="1">
          <mxGeometry width="160" height="30" as="geometry" />
        </mxCell>
        <mxCell id="PGz181kGc2inq-XdH9TZ-23" value="PK" style="shape=partialRectangle;connectable=0;fillColor=none;top=0;left=0;bottom=0;right=0;fontStyle=1;overflow=hidden;whiteSpace=wrap;html=1;" parent="PGz181kGc2inq-XdH9TZ-22" vertex="1">
          <mxGeometry width="30" height="30" as="geometry">
            <mxRectangle width="30" height="30" as="alternateBounds" />
          </mxGeometry>
        </mxCell>
        <mxCell id="PGz181kGc2inq-XdH9TZ-24" value="id_tarjeta_embarque" style="shape=partialRectangle;connectable=0;fillColor=none;top=0;left=0;bottom=0;right=0;align=left;spacingLeft=6;fontStyle=5;overflow=hidden;whiteSpace=wrap;html=1;" parent="PGz181kGc2inq-XdH9TZ-22" vertex="1">
          <mxGeometry x="30" width="130" height="30" as="geometry">
            <mxRectangle width="130" height="30" as="alternateBounds" />
          </mxGeometry>
        </mxCell>
        <mxCell id="PGz181kGc2inq-XdH9TZ-25" value="num_reserva" style="text;align=left;verticalAlign=top;spacingLeft=4;spacingRight=4;overflow=hidden;rotatable=0;points=[[0,0.5],[1,0.5]];portConstraint=eastwest;rounded=0;shadow=0;html=0;" parent="PGz181kGc2inq-XdH9TZ-20" vertex="1">
          <mxGeometry y="56" width="160" height="26" as="geometry" />
        </mxCell>
        <mxCell id="PGz181kGc2inq-XdH9TZ-26" value="fecha" style="text;align=left;verticalAlign=top;spacingLeft=4;spacingRight=4;overflow=hidden;rotatable=0;points=[[0,0.5],[1,0.5]];portConstraint=eastwest;rounded=0;shadow=0;html=0;" parent="PGz181kGc2inq-XdH9TZ-20" vertex="1">
          <mxGeometry y="82" width="160" height="26" as="geometry" />
        </mxCell>
        <mxCell id="PGz181kGc2inq-XdH9TZ-45" value="Aeropurerto" style="swimlane;fontStyle=2;align=center;verticalAlign=top;childLayout=stackLayout;horizontal=1;startSize=26;horizontalStack=0;resizeParent=1;resizeLast=0;collapsible=1;marginBottom=0;rounded=0;shadow=0;strokeWidth=1;" parent="WIyWlLk6GJQsqaUBKTNV-1" vertex="1">
          <mxGeometry x="760" y="-1158" width="150" height="138.5" as="geometry">
            <mxRectangle x="230" y="140" width="160" height="26" as="alternateBounds" />
          </mxGeometry>
        </mxCell>
        <mxCell id="PGz181kGc2inq-XdH9TZ-46" value="" style="shape=table;startSize=0;container=1;collapsible=1;childLayout=tableLayout;fixedRows=1;rowLines=0;fontStyle=0;align=center;resizeLast=1;strokeColor=none;fillColor=none;collapsible=0;" parent="PGz181kGc2inq-XdH9TZ-45" vertex="1">
          <mxGeometry y="26" width="150" height="30" as="geometry" />
        </mxCell>
        <mxCell id="PGz181kGc2inq-XdH9TZ-47" value="" style="shape=tableRow;horizontal=0;startSize=0;swimlaneHead=0;swimlaneBody=0;fillColor=none;collapsible=0;dropTarget=0;points=[[0,0.5],[1,0.5]];portConstraint=eastwest;top=0;left=0;right=0;bottom=1;" parent="PGz181kGc2inq-XdH9TZ-46" vertex="1">
          <mxGeometry width="150" height="30" as="geometry" />
        </mxCell>
        <mxCell id="PGz181kGc2inq-XdH9TZ-48" value="PK" style="shape=partialRectangle;connectable=0;fillColor=none;top=0;left=0;bottom=0;right=0;fontStyle=1;overflow=hidden;whiteSpace=wrap;html=1;" parent="PGz181kGc2inq-XdH9TZ-47" vertex="1">
          <mxGeometry width="30" height="30" as="geometry">
            <mxRectangle width="30" height="30" as="alternateBounds" />
          </mxGeometry>
        </mxCell>
        <mxCell id="PGz181kGc2inq-XdH9TZ-49" value="codigo_aeropuerto" style="shape=partialRectangle;connectable=0;fillColor=none;top=0;left=0;bottom=0;right=0;align=left;spacingLeft=6;fontStyle=5;overflow=hidden;whiteSpace=wrap;html=1;" parent="PGz181kGc2inq-XdH9TZ-47" vertex="1">
          <mxGeometry x="30" width="120" height="30" as="geometry">
            <mxRectangle width="120" height="30" as="alternateBounds" />
          </mxGeometry>
        </mxCell>
        <mxCell id="PGz181kGc2inq-XdH9TZ-50" value="nombre" style="text;align=left;verticalAlign=top;spacingLeft=4;spacingRight=4;overflow=hidden;rotatable=0;points=[[0,0.5],[1,0.5]];portConstraint=eastwest;rounded=0;shadow=0;html=0;" parent="PGz181kGc2inq-XdH9TZ-45" vertex="1">
          <mxGeometry y="56" width="150" height="26" as="geometry" />
        </mxCell>
        <mxCell id="PGz181kGc2inq-XdH9TZ-51" value="localidad" style="text;align=left;verticalAlign=top;spacingLeft=4;spacingRight=4;overflow=hidden;rotatable=0;points=[[0,0.5],[1,0.5]];portConstraint=eastwest;rounded=0;shadow=0;html=0;" parent="PGz181kGc2inq-XdH9TZ-45" vertex="1">
          <mxGeometry y="82" width="150" height="26" as="geometry" />
        </mxCell>
        <mxCell id="PGz181kGc2inq-XdH9TZ-52" value="pais" style="text;align=left;verticalAlign=top;spacingLeft=4;spacingRight=4;overflow=hidden;rotatable=0;points=[[0,0.5],[1,0.5]];portConstraint=eastwest;" parent="PGz181kGc2inq-XdH9TZ-45" vertex="1">
          <mxGeometry y="108" width="150" height="26" as="geometry" />
        </mxCell>
        <mxCell id="PGz181kGc2inq-XdH9TZ-66" value="Asiento" style="swimlane;fontStyle=2;align=center;verticalAlign=top;childLayout=stackLayout;horizontal=1;startSize=26;horizontalStack=0;resizeParent=1;resizeLast=0;collapsible=1;marginBottom=0;rounded=0;shadow=0;strokeWidth=1;dashed=1;dashPattern=8 8;" parent="WIyWlLk6GJQsqaUBKTNV-1" vertex="1">
          <mxGeometry x="240" y="-975" width="160" height="115" as="geometry">
            <mxRectangle x="230" y="140" width="160" height="26" as="alternateBounds" />
          </mxGeometry>
        </mxCell>
        <mxCell id="PGz181kGc2inq-XdH9TZ-67" value="" style="shape=table;startSize=0;container=1;collapsible=1;childLayout=tableLayout;fixedRows=1;rowLines=0;fontStyle=0;align=center;resizeLast=1;strokeColor=none;fillColor=none;collapsible=0;" parent="PGz181kGc2inq-XdH9TZ-66" vertex="1">
          <mxGeometry y="26" width="160" height="30" as="geometry" />
        </mxCell>
        <mxCell id="PGz181kGc2inq-XdH9TZ-68" value="" style="shape=tableRow;horizontal=0;startSize=0;swimlaneHead=0;swimlaneBody=0;fillColor=none;collapsible=0;dropTarget=0;points=[[0,0.5],[1,0.5]];portConstraint=eastwest;top=0;left=0;right=0;bottom=1;" parent="PGz181kGc2inq-XdH9TZ-67" vertex="1">
          <mxGeometry width="160" height="30" as="geometry" />
        </mxCell>
        <mxCell id="PGz181kGc2inq-XdH9TZ-69" value="PK" style="shape=partialRectangle;connectable=0;fillColor=none;top=0;left=0;bottom=0;right=0;fontStyle=1;overflow=hidden;whiteSpace=wrap;html=1;" parent="PGz181kGc2inq-XdH9TZ-68" vertex="1">
          <mxGeometry width="30" height="30" as="geometry">
            <mxRectangle width="30" height="30" as="alternateBounds" />
          </mxGeometry>
        </mxCell>
        <mxCell id="PGz181kGc2inq-XdH9TZ-70" value="id_asiento" style="shape=partialRectangle;connectable=0;fillColor=none;top=0;left=0;bottom=0;right=0;align=left;spacingLeft=6;fontStyle=5;overflow=hidden;whiteSpace=wrap;html=1;" parent="PGz181kGc2inq-XdH9TZ-68" vertex="1">
          <mxGeometry x="30" width="130" height="30" as="geometry">
            <mxRectangle width="130" height="30" as="alternateBounds" />
          </mxGeometry>
        </mxCell>
        <mxCell id="PGz181kGc2inq-XdH9TZ-71" value="fila" style="text;align=left;verticalAlign=top;spacingLeft=4;spacingRight=4;overflow=hidden;rotatable=0;points=[[0,0.5],[1,0.5]];portConstraint=eastwest;rounded=0;shadow=0;html=0;" parent="PGz181kGc2inq-XdH9TZ-66" vertex="1">
          <mxGeometry y="56" width="160" height="26" as="geometry" />
        </mxCell>
        <mxCell id="PGz181kGc2inq-XdH9TZ-73" value="puerta" style="text;align=left;verticalAlign=top;spacingLeft=4;spacingRight=4;overflow=hidden;rotatable=0;points=[[0,0.5],[1,0.5]];portConstraint=eastwest;rounded=0;shadow=0;html=0;" parent="PGz181kGc2inq-XdH9TZ-66" vertex="1">
          <mxGeometry y="82" width="160" height="28" as="geometry" />
        </mxCell>
        <mxCell id="PGz181kGc2inq-XdH9TZ-74" value="Avion" style="swimlane;fontStyle=2;align=center;verticalAlign=top;childLayout=stackLayout;horizontal=1;startSize=26;horizontalStack=0;resizeParent=1;resizeLast=0;collapsible=1;marginBottom=0;rounded=0;shadow=0;strokeWidth=1;" parent="WIyWlLk6GJQsqaUBKTNV-1" vertex="1">
          <mxGeometry x="240" y="-730" width="160" height="108" as="geometry">
            <mxRectangle x="230" y="140" width="160" height="26" as="alternateBounds" />
          </mxGeometry>
        </mxCell>
        <mxCell id="PGz181kGc2inq-XdH9TZ-75" value="" style="shape=table;startSize=4;container=1;collapsible=1;childLayout=tableLayout;fixedRows=1;rowLines=0;fontStyle=0;align=center;resizeLast=1;strokeColor=none;fillColor=none;collapsible=0;" parent="PGz181kGc2inq-XdH9TZ-74" vertex="1">
          <mxGeometry y="26" width="160" height="34" as="geometry" />
        </mxCell>
        <mxCell id="PGz181kGc2inq-XdH9TZ-76" value="" style="shape=tableRow;horizontal=0;startSize=0;swimlaneHead=0;swimlaneBody=0;fillColor=none;collapsible=0;dropTarget=0;points=[[0,0.5],[1,0.5]];portConstraint=eastwest;top=0;left=0;right=0;bottom=1;" parent="PGz181kGc2inq-XdH9TZ-75" vertex="1">
          <mxGeometry y="4" width="160" height="30" as="geometry" />
        </mxCell>
        <mxCell id="PGz181kGc2inq-XdH9TZ-77" value="PK" style="shape=partialRectangle;connectable=0;fillColor=none;top=0;left=0;bottom=0;right=0;fontStyle=1;overflow=hidden;whiteSpace=wrap;html=1;" parent="PGz181kGc2inq-XdH9TZ-76" vertex="1">
          <mxGeometry width="30" height="30" as="geometry">
            <mxRectangle width="30" height="30" as="alternateBounds" />
          </mxGeometry>
        </mxCell>
        <mxCell id="PGz181kGc2inq-XdH9TZ-78" value="id_avion" style="shape=partialRectangle;connectable=0;fillColor=none;top=0;left=0;bottom=0;right=0;align=left;spacingLeft=6;fontStyle=5;overflow=hidden;whiteSpace=wrap;html=1;" parent="PGz181kGc2inq-XdH9TZ-76" vertex="1">
          <mxGeometry x="30" width="130" height="30" as="geometry">
            <mxRectangle width="130" height="30" as="alternateBounds" />
          </mxGeometry>
        </mxCell>
        <mxCell id="PGz181kGc2inq-XdH9TZ-79" value="num_plazas" style="text;align=left;verticalAlign=top;spacingLeft=4;spacingRight=4;overflow=hidden;rotatable=0;points=[[0,0.5],[1,0.5]];portConstraint=eastwest;rounded=0;shadow=0;html=0;" parent="PGz181kGc2inq-XdH9TZ-74" vertex="1">
          <mxGeometry y="60" width="160" height="26" as="geometry" />
        </mxCell>
        <mxCell id="PGz181kGc2inq-XdH9TZ-81" value="Llega" style="shape=rhombus;perimeter=rhombusPerimeter;whiteSpace=wrap;html=1;align=center;" parent="WIyWlLk6GJQsqaUBKTNV-1" vertex="1">
          <mxGeometry x="640" y="-960" width="120" height="60" as="geometry" />
        </mxCell>
        <mxCell id="PGz181kGc2inq-XdH9TZ-82" value="Sale" style="shape=rhombus;perimeter=rhombusPerimeter;whiteSpace=wrap;html=1;align=center;" parent="WIyWlLk6GJQsqaUBKTNV-1" vertex="1">
          <mxGeometry x="900" y="-960" width="120" height="60" as="geometry" />
        </mxCell>
        <mxCell id="PGz181kGc2inq-XdH9TZ-83" value="Hace" style="shape=rhombus;perimeter=rhombusPerimeter;whiteSpace=wrap;html=1;align=center;" parent="WIyWlLk6GJQsqaUBKTNV-1" vertex="1">
          <mxGeometry x="495" y="-799" width="120" height="60" as="geometry" />
        </mxCell>
        <mxCell id="PGz181kGc2inq-XdH9TZ-84" value="Reserva" style="shape=rhombus;perimeter=rhombusPerimeter;whiteSpace=wrap;html=1;align=center;" parent="WIyWlLk6GJQsqaUBKTNV-1" vertex="1">
          <mxGeometry x="40" y="-1150" width="120" height="60" as="geometry" />
        </mxCell>
        <mxCell id="PGz181kGc2inq-XdH9TZ-88" value="" style="endArrow=none;html=1;rounded=0;exitX=1;exitY=0.5;exitDx=0;exitDy=0;entryX=-0.007;entryY=0.69;entryDx=0;entryDy=0;entryPerimeter=0;" parent="WIyWlLk6GJQsqaUBKTNV-1" source="PGz181kGc2inq-XdH9TZ-84" target="PGz181kGc2inq-XdH9TZ-22" edge="1">
          <mxGeometry relative="1" as="geometry">
            <mxPoint x="490" y="-790" as="sourcePoint" />
            <mxPoint x="650" y="-790" as="targetPoint" />
          </mxGeometry>
        </mxCell>
        <mxCell id="PGz181kGc2inq-XdH9TZ-89" value="" style="endArrow=none;html=1;rounded=0;entryX=0;entryY=0.5;entryDx=0;entryDy=0;exitX=1.005;exitY=0.142;exitDx=0;exitDy=0;exitPerimeter=0;" parent="WIyWlLk6GJQsqaUBKTNV-1" source="PGz181kGc2inq-XdH9TZ-17" target="PGz181kGc2inq-XdH9TZ-84" edge="1">
          <mxGeometry relative="1" as="geometry">
            <mxPoint x="-70" y="-950" as="sourcePoint" />
            <mxPoint x="90" y="-950" as="targetPoint" />
          </mxGeometry>
        </mxCell>
        <mxCell id="PGz181kGc2inq-XdH9TZ-90" value="" style="endArrow=none;html=1;rounded=0;exitX=0.5;exitY=1;exitDx=0;exitDy=0;entryX=0.5;entryY=0;entryDx=0;entryDy=0;" parent="WIyWlLk6GJQsqaUBKTNV-1" source="PGz181kGc2inq-XdH9TZ-20" target="PGz181kGc2inq-XdH9TZ-66" edge="1">
          <mxGeometry relative="1" as="geometry">
            <mxPoint x="170" y="-1110" as="sourcePoint" />
            <mxPoint x="249" y="-1110" as="targetPoint" />
          </mxGeometry>
        </mxCell>
        <mxCell id="PGz181kGc2inq-XdH9TZ-91" value="" style="endArrow=none;html=1;rounded=0;exitX=0.5;exitY=1;exitDx=0;exitDy=0;entryX=0.5;entryY=0;entryDx=0;entryDy=0;" parent="WIyWlLk6GJQsqaUBKTNV-1" source="PGz181kGc2inq-XdH9TZ-66" target="PGz181kGc2inq-XdH9TZ-74" edge="1">
          <mxGeometry relative="1" as="geometry">
            <mxPoint x="210" y="-875" as="sourcePoint" />
            <mxPoint x="210" y="-827" as="targetPoint" />
          </mxGeometry>
        </mxCell>
        <mxCell id="PGz181kGc2inq-XdH9TZ-92" value="" style="endArrow=none;html=1;rounded=0;exitX=0;exitY=0.5;exitDx=0;exitDy=0;entryX=1;entryY=0.5;entryDx=0;entryDy=0;" parent="WIyWlLk6GJQsqaUBKTNV-1" source="PGz181kGc2inq-XdH9TZ-83" target="PGz181kGc2inq-XdH9TZ-79" edge="1">
          <mxGeometry relative="1" as="geometry">
            <mxPoint x="330" y="-865" as="sourcePoint" />
            <mxPoint x="400" y="-760" as="targetPoint" />
          </mxGeometry>
        </mxCell>
        <mxCell id="PGz181kGc2inq-XdH9TZ-93" value="" style="endArrow=none;html=1;rounded=0;exitX=1;exitY=0.5;exitDx=0;exitDy=0;entryX=-0.002;entryY=0.787;entryDx=0;entryDy=0;entryPerimeter=0;" parent="WIyWlLk6GJQsqaUBKTNV-1" source="PGz181kGc2inq-XdH9TZ-83" target="PGz181kGc2inq-XdH9TZ-3" edge="1">
          <mxGeometry relative="1" as="geometry">
            <mxPoint x="330" y="-865" as="sourcePoint" />
            <mxPoint x="650" y="-760" as="targetPoint" />
          </mxGeometry>
        </mxCell>
        <mxCell id="PGz181kGc2inq-XdH9TZ-94" value="" style="endArrow=none;html=1;rounded=0;entryX=0.5;entryY=1;entryDx=0;entryDy=0;exitX=0.25;exitY=0;exitDx=0;exitDy=0;" parent="WIyWlLk6GJQsqaUBKTNV-1" source="PGz181kGc2inq-XdH9TZ-1" target="PGz181kGc2inq-XdH9TZ-81" edge="1">
          <mxGeometry relative="1" as="geometry">
            <mxPoint x="680" y="-860" as="sourcePoint" />
            <mxPoint x="840" y="-860" as="targetPoint" />
            <Array as="points" />
          </mxGeometry>
        </mxCell>
        <mxCell id="PGz181kGc2inq-XdH9TZ-95" value="" style="endArrow=none;html=1;rounded=0;exitX=0.5;exitY=1;exitDx=0;exitDy=0;entryX=0.75;entryY=0;entryDx=0;entryDy=0;" parent="WIyWlLk6GJQsqaUBKTNV-1" source="PGz181kGc2inq-XdH9TZ-82" target="PGz181kGc2inq-XdH9TZ-1" edge="1">
          <mxGeometry relative="1" as="geometry">
            <mxPoint x="970" y="-845" as="sourcePoint" />
            <mxPoint x="970" y="-790" as="targetPoint" />
            <Array as="points" />
          </mxGeometry>
        </mxCell>
        <mxCell id="PGz181kGc2inq-XdH9TZ-96" value="" style="endArrow=none;html=1;rounded=0;exitX=0;exitY=0.5;exitDx=0;exitDy=0;entryX=0.5;entryY=0;entryDx=0;entryDy=0;" parent="WIyWlLk6GJQsqaUBKTNV-1" source="PGz181kGc2inq-XdH9TZ-50" target="PGz181kGc2inq-XdH9TZ-81" edge="1">
          <mxGeometry relative="1" as="geometry">
            <mxPoint x="594.5" y="-990" as="sourcePoint" />
            <mxPoint x="499.5" y="-990" as="targetPoint" />
            <Array as="points">
              <mxPoint x="700" y="-1089" />
            </Array>
          </mxGeometry>
        </mxCell>
        <mxCell id="PGz181kGc2inq-XdH9TZ-97" value="" style="endArrow=none;html=1;rounded=0;exitX=0.5;exitY=0;exitDx=0;exitDy=0;entryX=1;entryY=0.5;entryDx=0;entryDy=0;" parent="WIyWlLk6GJQsqaUBKTNV-1" source="PGz181kGc2inq-XdH9TZ-82" target="PGz181kGc2inq-XdH9TZ-50" edge="1">
          <mxGeometry relative="1" as="geometry">
            <mxPoint x="1015" y="-1000" as="sourcePoint" />
            <mxPoint x="920" y="-1000" as="targetPoint" />
            <Array as="points">
              <mxPoint x="960" y="-1090" />
            </Array>
          </mxGeometry>
        </mxCell>
        <mxCell id="PGz181kGc2inq-XdH9TZ-98" value="1,1" style="text;html=1;strokeColor=none;fillColor=none;align=center;verticalAlign=middle;whiteSpace=wrap;rounded=0;" parent="WIyWlLk6GJQsqaUBKTNV-1" vertex="1">
          <mxGeometry x="270" y="-1005" width="60" height="30" as="geometry" />
        </mxCell>
        <mxCell id="PGz181kGc2inq-XdH9TZ-99" value="N:M" style="text;html=1;strokeColor=none;fillColor=none;align=center;verticalAlign=middle;whiteSpace=wrap;rounded=0;" parent="WIyWlLk6GJQsqaUBKTNV-1" vertex="1">
          <mxGeometry x="70" y="-1090" width="60" height="30" as="geometry" />
        </mxCell>
        <mxCell id="PGz181kGc2inq-XdH9TZ-100" value="1,1" style="text;html=1;strokeColor=none;fillColor=none;align=center;verticalAlign=middle;whiteSpace=wrap;rounded=0;" parent="WIyWlLk6GJQsqaUBKTNV-1" vertex="1">
          <mxGeometry x="707" y="-1120" width="60" height="30" as="geometry" />
        </mxCell>
        <mxCell id="PGz181kGc2inq-XdH9TZ-101" value="1,1" style="text;html=1;strokeColor=none;fillColor=none;align=center;verticalAlign=middle;whiteSpace=wrap;rounded=0;" parent="WIyWlLk6GJQsqaUBKTNV-1" vertex="1">
          <mxGeometry x="317" y="-1060" width="60" height="30" as="geometry" />
        </mxCell>
        <mxCell id="PGz181kGc2inq-XdH9TZ-102" value="1,n" style="text;html=1;strokeColor=none;fillColor=none;align=center;verticalAlign=middle;whiteSpace=wrap;rounded=0;" parent="WIyWlLk6GJQsqaUBKTNV-1" vertex="1">
          <mxGeometry x="190" y="-1150" width="60" height="30" as="geometry" />
        </mxCell>
        <mxCell id="PGz181kGc2inq-XdH9TZ-103" value="1,1" style="text;html=1;strokeColor=none;fillColor=none;align=center;verticalAlign=middle;whiteSpace=wrap;rounded=0;" parent="WIyWlLk6GJQsqaUBKTNV-1" vertex="1">
          <mxGeometry x="-50" y="-1150" width="60" height="30" as="geometry" />
        </mxCell>
        <mxCell id="PGz181kGc2inq-XdH9TZ-104" value="1:N" style="text;html=1;strokeColor=none;fillColor=none;align=center;verticalAlign=middle;whiteSpace=wrap;rounded=0;" parent="WIyWlLk6GJQsqaUBKTNV-1" vertex="1">
          <mxGeometry x="525" y="-730" width="60" height="30" as="geometry" />
        </mxCell>
        <mxCell id="PGz181kGc2inq-XdH9TZ-105" value="1,n" style="text;html=1;strokeColor=none;fillColor=none;align=center;verticalAlign=middle;whiteSpace=wrap;rounded=0;" parent="WIyWlLk6GJQsqaUBKTNV-1" vertex="1">
          <mxGeometry x="707" y="-760" width="60" height="30" as="geometry" />
        </mxCell>
        <mxCell id="PGz181kGc2inq-XdH9TZ-106" value="1,1" style="text;html=1;strokeColor=none;fillColor=none;align=center;verticalAlign=middle;whiteSpace=wrap;rounded=0;" parent="WIyWlLk6GJQsqaUBKTNV-1" vertex="1">
          <mxGeometry x="390" y="-670" width="60" height="30" as="geometry" />
        </mxCell>
        <mxCell id="PGz181kGc2inq-XdH9TZ-107" value="1,n" style="text;html=1;strokeColor=none;fillColor=none;align=center;verticalAlign=middle;whiteSpace=wrap;rounded=0;" parent="WIyWlLk6GJQsqaUBKTNV-1" vertex="1">
          <mxGeometry x="880" y="-840" width="60" height="30" as="geometry" />
        </mxCell>
        <mxCell id="PGz181kGc2inq-XdH9TZ-108" value="1,n" style="text;html=1;strokeColor=none;fillColor=none;align=center;verticalAlign=middle;whiteSpace=wrap;rounded=0;" parent="WIyWlLk6GJQsqaUBKTNV-1" vertex="1">
          <mxGeometry x="720" y="-840" width="60" height="30" as="geometry" />
        </mxCell>
        <mxCell id="PGz181kGc2inq-XdH9TZ-109" value="1:N" style="text;html=1;strokeColor=none;fillColor=none;align=center;verticalAlign=middle;whiteSpace=wrap;rounded=0;" parent="WIyWlLk6GJQsqaUBKTNV-1" vertex="1">
          <mxGeometry x="585" y="-945" width="60" height="30" as="geometry" />
        </mxCell>
        <mxCell id="PGz181kGc2inq-XdH9TZ-110" value="1,1" style="text;html=1;strokeColor=none;fillColor=none;align=center;verticalAlign=middle;whiteSpace=wrap;rounded=0;" parent="WIyWlLk6GJQsqaUBKTNV-1" vertex="1">
          <mxGeometry x="910" y="-1120" width="60" height="30" as="geometry" />
        </mxCell>
        <mxCell id="PGz181kGc2inq-XdH9TZ-111" value="1:N" style="text;html=1;strokeColor=none;fillColor=none;align=center;verticalAlign=middle;whiteSpace=wrap;rounded=0;" parent="WIyWlLk6GJQsqaUBKTNV-1" vertex="1">
          <mxGeometry x="1010" y="-945" width="60" height="30" as="geometry" />
        </mxCell>
        <mxCell id="PGz181kGc2inq-XdH9TZ-112" value="&lt;div style=&quot;line-height: 200%;&quot;&gt;&lt;font style=&quot;font-size: 15px;&quot;&gt;Cliente(&lt;b style=&quot;&quot;&gt;DNI&lt;/b&gt;, nombre, apellidos, direccion, telefono, tarjeta_credito)&lt;/font&gt;&lt;/div&gt;&lt;div style=&quot;line-height: 200%;&quot;&gt;&lt;font style=&quot;font-size: 15px;&quot;&gt;&lt;br&gt;&lt;/font&gt;&lt;/div&gt;&lt;div style=&quot;line-height: 200%;&quot;&gt;&lt;font size=&quot;3&quot;&gt;Avion(&lt;b&gt;&lt;u&gt;id_avion&lt;/u&gt;&lt;/b&gt;, num_plazas)&lt;/font&gt;&lt;/div&gt;&lt;div style=&quot;line-height: 200%;&quot;&gt;&lt;font size=&quot;3&quot;&gt;&lt;br&gt;&lt;/font&gt;&lt;/div&gt;&lt;div style=&quot;line-height: 200%;&quot;&gt;&lt;font size=&quot;3&quot;&gt;Asiento(&lt;b&gt;&lt;u&gt;id_asiento&lt;/u&gt;&lt;/b&gt;, fila, puerta, &lt;u&gt;fk_id_avion&lt;/u&gt;)&lt;/font&gt;&lt;/div&gt;&lt;div style=&quot;line-height: 200%;&quot;&gt;&lt;font size=&quot;3&quot;&gt;&lt;br&gt;&lt;/font&gt;&lt;/div&gt;&lt;div style=&quot;line-height: 200%;&quot;&gt;&lt;div style=&quot;border-color: var(--border-color); line-height: 24px;&quot;&gt;&lt;font style=&quot;border-color: var(--border-color);&quot; size=&quot;3&quot;&gt;Tarjeta_Embarque(&lt;b style=&quot;border-color: var(--border-color);&quot;&gt;id_tarjeta_embarque&lt;/b&gt;,&amp;nbsp;&lt;u style=&quot;border-color: var(--border-color);&quot;&gt;DNI_cliente,&lt;/u&gt;&amp;nbsp;&lt;/font&gt;&lt;/div&gt;&lt;u style=&quot;border-color: var(--border-color); font-size: medium;&quot;&gt;fk_id_asiento,&lt;/u&gt;&amp;nbsp;&lt;span style=&quot;border-color: var(--border-color); font-size: medium;&quot;&gt;&lt;span style=&quot;border-color: var(--border-color); background-color: initial;&quot;&gt;num_reserva, fecha&lt;/span&gt;&lt;span style=&quot;border-color: var(--border-color); text-decoration-line: underline; background-color: initial;&quot;&gt;)&lt;br style=&quot;border-color: var(--border-color);&quot;&gt;&lt;/span&gt;&lt;/span&gt;&lt;/div&gt;&lt;div&gt;&lt;br&gt;&lt;/div&gt;&lt;div style=&quot;line-height: 200%;&quot;&gt;&lt;font size=&quot;3&quot;&gt;Aeropuerto(&lt;b style=&quot;border-color: var(--border-color);&quot;&gt;&lt;u&gt;codigo_aeropuerto&lt;/u&gt;&lt;/b&gt;, nombre, localidad, pais)&lt;br&gt;&lt;/font&gt;&lt;/div&gt;&lt;div style=&quot;line-height: 200%;&quot;&gt;&lt;font size=&quot;3&quot;&gt;&lt;br&gt;&lt;/font&gt;&lt;/div&gt;&lt;div style=&quot;line-height: 200%;&quot;&gt;&lt;font size=&quot;3&quot;&gt;Vuelo(&lt;b&gt;&lt;u&gt;id_vuelo&lt;/u&gt;&lt;/b&gt;, hora_salida, hora_llegada, &lt;u&gt;fk_id_avion&lt;/u&gt;,&amp;nbsp; &lt;u&gt;fk_codigo_aeropuerto_salida&lt;/u&gt;, &lt;u&gt;fk_codigo_aeropuerto_llegada &lt;/u&gt;)&lt;/font&gt;&lt;/div&gt;" style="text;html=1;strokeColor=none;fillColor=none;align=left;verticalAlign=middle;whiteSpace=wrap;rounded=0;" parent="WIyWlLk6GJQsqaUBKTNV-1" vertex="1">
          <mxGeometry x="-770" y="-960" width="680" height="405" as="geometry" />
        </mxCell>
        <mxCell id="PGz181kGc2inq-XdH9TZ-113" value="Se Encuentra" style="shape=rhombus;perimeter=rhombusPerimeter;whiteSpace=wrap;html=1;align=center;" parent="WIyWlLk6GJQsqaUBKTNV-1" vertex="1">
          <mxGeometry x="260" y="-820" width="120" height="60" as="geometry" />
        </mxCell>
        <mxCell id="PGz181kGc2inq-XdH9TZ-114" value="Asigna" style="shape=rhombus;perimeter=rhombusPerimeter;whiteSpace=wrap;html=1;align=center;" parent="WIyWlLk6GJQsqaUBKTNV-1" vertex="1">
          <mxGeometry x="260" y="-1049.5" width="120" height="60" as="geometry" />
        </mxCell>
        <mxCell id="PGz181kGc2inq-XdH9TZ-115" value="1,n" style="text;html=1;strokeColor=none;fillColor=none;align=center;verticalAlign=middle;whiteSpace=wrap;rounded=0;" parent="WIyWlLk6GJQsqaUBKTNV-1" vertex="1">
          <mxGeometry x="270" y="-840" width="60" height="30" as="geometry" />
        </mxCell>
        <mxCell id="PGz181kGc2inq-XdH9TZ-116" value="1,1" style="text;html=1;strokeColor=none;fillColor=none;align=center;verticalAlign=middle;whiteSpace=wrap;rounded=0;" parent="WIyWlLk6GJQsqaUBKTNV-1" vertex="1">
          <mxGeometry x="270" y="-760" width="60" height="30" as="geometry" />
        </mxCell>
        <mxCell id="PGz181kGc2inq-XdH9TZ-117" value="N:1" style="text;html=1;strokeColor=none;fillColor=none;align=center;verticalAlign=middle;whiteSpace=wrap;rounded=0;" parent="WIyWlLk6GJQsqaUBKTNV-1" vertex="1">
          <mxGeometry x="210" y="-805" width="60" height="30" as="geometry" />
        </mxCell>
        <mxCell id="PGz181kGc2inq-XdH9TZ-118" value="1:1" style="text;html=1;strokeColor=none;fillColor=none;align=center;verticalAlign=middle;whiteSpace=wrap;rounded=0;" parent="WIyWlLk6GJQsqaUBKTNV-1" vertex="1">
          <mxGeometry x="210" y="-1035" width="60" height="30" as="geometry" />
        </mxCell>
      </root>
    </mxGraphModel>
  </diagram>
</mxfile>
